  <svg
    xmlns="http://www.w3.org/2000/svg"
    viewBox="0 0 46.7 20.2"
    fill="currentColor"
    width="24"
  >
    <path d="M25.4 12.7c-2.7 1.8-5.4 3.6-8 5.4-5.1 3.7-12.8 2.5-15.9-2.6C-1.9 9.9.5 1.6 8.7.2c4.9-.8 9.4 1.3 11.5 5.4.3.6.5 1.3.9 2 1.7-1.1 3.3-2.2 5-3.2C28 3.2 29.9 1.7 31.9.9 37.2-1.4 43.5 1 45.8 6c3 6.6-1.9 14.1-9.2 14.2-3.8.1-7-1.1-9.3-4.1-.8-1-1.2-2.2-1.9-3.4zm-10-2.5c0-2.8-2.1-5.1-4.7-5.1-2.7 0-4.8 2.2-4.8 5s2.1 5.1 4.8 5.1c2.6 0 4.7-2.2 4.7-5zm25.4-.1c0-2.8-2.2-5-4.8-5-2.7 0-4.8 2.2-4.8 5 0 2.9 2.1 5.1 4.8 5.1 2.7 0 4.8-2.3 4.8-5.1z" />
  </svg>